<svg id="visual" viewBox="0 0 900 600" width="900" height="600" xmlns="http://www.w3.org/2000/svg" xmlns:xlink="http://www.w3.org/1999/xlink" version="1.1"><path d="M0 103L75 96C150 89 300 75 450 70C600 65 750 69 825 71L900 73L900 0L825 0C750 0 600 0 450 0C300 0 150 0 75 0L0 0Z" fill="#9effd0"></path><path d="M0 307L75 306C150 305 300 303 450 286C600 269 750 237 825 221L900 205L900 71L825 69C750 67 600 63 450 68C300 73 150 87 75 94L0 101Z" fill="#7bffc0"></path><path d="M0 529L75 512C150 495 300 461 450 447C600 433 750 439 825 442L900 445L900 203L825 219C750 235 600 267 450 284C300 301 150 303 75 304L0 305Z" fill="#5ef6ae"></path><path d="M0 601L75 601C150 601 300 601 450 601C600 601 750 601 825 601L900 601L900 443L825 440C750 437 600 431 450 445C300 459 150 493 75 510L0 527Z" fill="#4de59a"></path></svg>